<svg width="254" height="39" viewBox="0 0 254 39" fill="none" xmlns="http://www.w3.org/2000/svg">
<path d="M32 32H0V12.7998H8V22.4004H24V12.7998H32V32ZM24 12.7998H8V0H24V12.7998Z" fill="#14441A"/>
<path d="M64.66 26.8076V31.6271H52.186C51.052 31.6271 49.9889 31.4145 48.9967 30.9892C48.0044 30.564 47.1303 29.9851 46.3743 29.2528C45.6419 28.4968 45.0631 27.6226 44.6379 26.6304C44.2126 25.6381 44 24.575 44 23.441V14.936C44 13.802 44.2126 12.7389 44.6379 11.7467C45.0631 10.7544 45.6419 9.89212 46.3743 9.15974C47.1303 8.40375 48.0044 7.81312 48.9967 7.38787C49.9889 6.96262 51.052 6.75 52.186 6.75H54.2414C55.3754 6.75 56.4385 6.96262 57.4308 7.38787C58.423 7.81312 59.2853 8.40375 60.0177 9.15974C60.7737 9.89212 61.3643 10.7544 61.7896 11.7467C62.2148 12.7389 62.4275 13.802 62.4275 14.936V26.908H57.608V14.936C57.608 14.4635 57.5135 14.0265 57.3245 13.6249C57.1591 13.2232 56.9228 12.8689 56.6157 12.5617C56.3086 12.2546 55.9542 12.0184 55.5526 11.853C55.151 11.664 54.7139 11.5695 54.2414 11.5695H52.186C51.7372 11.5695 51.3001 11.664 50.8749 11.853C50.4732 12.0184 50.1189 12.2546 49.8117 12.5617C49.5046 12.8689 49.2566 13.2232 49.0676 13.6249C48.9022 14.0265 48.8195 14.4635 48.8195 14.936V23.441C48.8195 23.9135 48.9022 24.3624 49.0676 24.7877C49.2566 25.1893 49.5046 25.5437 49.8117 25.8508C50.1189 26.1343 50.4732 26.3705 50.8749 26.5595C51.3001 26.7249 51.7372 26.8076 52.186 26.8076H64.66Z" fill="#14441A"/>
<path d="M83.2852 14.936V21.9172C83.2852 23.2402 83.0253 24.4805 82.5055 25.6382C82.0094 26.7958 81.3243 27.8116 80.4502 28.6858C79.5997 29.5599 78.5956 30.245 77.438 30.7411C76.2804 31.2373 75.0401 31.4853 73.7171 31.4853H66.8068V14.936H71.6262V26.6658H73.7171C74.3786 26.6658 74.9928 26.5477 75.5598 26.3115C76.1504 26.0516 76.6584 25.709 77.0836 25.2838C77.5089 24.8585 77.8396 24.3624 78.0759 23.7954C78.3357 23.2048 78.4657 22.5787 78.4657 21.9172V14.936H83.2852Z" fill="#14441A"/>
<path d="M96.7215 14.9715V19.791H94.9142C94.2527 19.791 93.6266 19.9209 93.036 20.1808C92.469 20.417 91.9729 20.7596 91.5476 21.2085C91.1224 21.6337 90.7798 22.1417 90.5199 22.7323C90.2837 23.2993 90.1656 23.9135 90.1656 24.575V31.4853H85.3461V24.575C85.3461 23.252 85.5941 22.0117 86.0903 20.8541C86.5864 19.6728 87.2715 18.657 88.1456 17.8065C89.0197 16.9324 90.0356 16.2472 91.1932 15.7511C92.3509 15.255 93.5912 15.0069 94.9142 15.0069L96.7215 14.9715Z" fill="#14441A"/>
<path d="M99.3472 31.4853V14.936H104.167V31.4853H99.3472ZM101.757 13.6249C100.954 13.5776 100.28 13.2705 99.737 12.7035C99.1936 12.1365 98.9219 11.4514 98.9219 10.6481C98.9219 9.84487 99.1936 9.17156 99.737 8.62818C100.28 8.06118 100.954 7.75406 101.757 7.70681C102.56 7.75406 103.233 8.06118 103.777 8.62818C104.32 9.17156 104.592 9.84487 104.592 10.6481C104.592 11.4514 104.32 12.1365 103.777 12.7035C103.233 13.2705 102.56 13.5776 101.757 13.6249Z" fill="#14441A"/>
<path d="M123.982 14.936V30.6348C123.982 31.7688 123.758 32.8201 123.309 33.7888C122.883 34.781 122.305 35.6433 121.572 36.3757C120.84 37.1081 119.978 37.6869 118.985 38.1121C118.017 38.5374 116.977 38.75 115.867 38.75H110.587V33.9305H115.867C116.316 33.9305 116.741 33.8478 117.143 33.6824C117.544 33.5171 117.887 33.2808 118.17 32.9737C118.477 32.6666 118.714 32.3122 118.879 31.9106C119.068 31.509 119.163 31.0837 119.163 30.6348V29.5008C118.218 30.1387 117.202 30.6348 116.115 30.9892C115.052 31.32 113.953 31.4853 112.819 31.4853H107.504V14.936H112.323V26.6658C113.221 26.7367 114.083 26.6304 114.91 26.3469C115.737 26.0398 116.469 25.5909 117.107 25.0003C117.769 24.386 118.277 23.6773 118.631 22.874C118.985 22.0708 119.163 21.2203 119.163 20.3225V14.936H123.982Z" fill="#14441A"/>
<path d="M144.994 26.7013V31.4853H138.473V19.7555H136.028C135.366 19.7555 134.74 19.8855 134.15 20.1453C133.583 20.3816 133.087 20.7242 132.661 21.173C132.236 21.5983 131.894 22.1062 131.634 22.6968C131.397 23.2638 131.279 23.8781 131.279 24.5396V26.7013H136.666V31.4853H126.46V24.5396C126.46 23.2166 126.708 21.9763 127.204 20.8187C127.7 19.6374 128.385 18.6215 129.259 17.771C130.134 16.8969 131.149 16.2118 132.307 15.7157C133.465 15.1959 134.705 14.936 136.028 14.936H143.257V26.7013H144.994Z" fill="#14441A"/>
</svg>
